HIERARCHY
ROOT joint_Root
{
	OFFSET 0.0 0.0 0.0
	CHANNELS 6 Xposition Yposition Zposition Zrotation Xrotation Yrotation 
	JOINT Hips
	{
		OFFSET 4.5925 91.4895 -427.239
		CHANNELS 6 Xposition Yposition Zposition Zrotation Xrotation Yrotation 
		JOINT Spine
		{
			OFFSET 15.7357 0.0 0.0
			CHANNELS 6 Xposition Yposition Zposition Zrotation Xrotation Yrotation 
			JOINT Chest
			{
				OFFSET 8.98455 -0.406207 0.0
				CHANNELS 6 Xposition Yposition Zposition Zrotation Xrotation Yrotation 
				JOINT Neck
				{
					OFFSET 16.3773 0.0 0.0
					CHANNELS 6 Xposition Yposition Zposition Zrotation Xrotation Yrotation 
					JOINT Head
					{
						OFFSET 6.45672 0.0 0.0
						CHANNELS 6 Xposition Yposition Zposition Zrotation Xrotation Yrotation 
						End Site
						{
							OFFSET 0.0 0.0 0.0
						}
					}
				}
				JOINT Shoulder_L
				{
					OFFSET 12.9942 -0.242716 4.98039
					CHANNELS 6 Xposition Yposition Zposition Zrotation Xrotation Yrotation 
					JOINT UpperArm_L
					{
						OFFSET 5.34809 0.0 0.0
						CHANNELS 6 Xposition Yposition Zposition Zrotation Xrotation Yrotation 
						JOINT LowerArm_L
						{
							OFFSET 24.3286 1.87007e-05 0.0
							CHANNELS 6 Xposition Yposition Zposition Zrotation Xrotation Yrotation 
							JOINT Hand_L
							{
								OFFSET 22.2916 0.0 0.0
								CHANNELS 6 Xposition Yposition Zposition Zrotation Xrotation Yrotation 
								End Site
								{
									OFFSET 0.0 0.0 0.0
								}
							}
						}
					}
				}
				JOINT Shoulder_R
				{
					OFFSET 12.9945 -0.242716 -4.98039
					CHANNELS 6 Xposition Yposition Zposition Zrotation Xrotation Yrotation 
					JOINT UpperArm_R
					{
						OFFSET -5.34813 0.0 0.0
						CHANNELS 6 Xposition Yposition Zposition Zrotation Xrotation Yrotation 
						JOINT LowerArm_R
						{
							OFFSET -24.3289 0.000322201 0.0
							CHANNELS 6 Xposition Yposition Zposition Zrotation Xrotation Yrotation 
							JOINT Hand_R
							{
								OFFSET -22.2915 -0.000108084 0.0
								CHANNELS 6 Xposition Yposition Zposition Zrotation Xrotation Yrotation 
								End Site
								{
									OFFSET 0.0 0.0 0.0
								}
							}
						}
					}
				}
			}
		}
		JOINT UpperLeg_L
		{
			OFFSET -2.19248 -6.46944 0.0
			CHANNELS 6 Xposition Yposition Zposition Zrotation Xrotation Yrotation 
			JOINT LowerLeg_L
			{
				OFFSET 39.0811 0.0 -1.23785e-05
				CHANNELS 6 Xposition Yposition Zposition Zrotation Xrotation Yrotation 
				JOINT Foot_L
				{
					OFFSET 40.9854 0.0 -1.26872e-05
					CHANNELS 6 Xposition Yposition Zposition Zrotation Xrotation Yrotation 
					JOINT Toes_L
					{
						OFFSET 11.7543 0.0 0.0
						CHANNELS 6 Xposition Yposition Zposition Zrotation Xrotation Yrotation 
						End Site
						{
							OFFSET 0.0 0.0 0.0
						}
					}
				}
			}
		}
		JOINT UpperLeg_R
		{
			OFFSET -2.19251 6.46944 0.0
			CHANNELS 6 Xposition Yposition Zposition Zrotation Xrotation Yrotation 
			JOINT LowerLeg_R
			{
				OFFSET -39.0811 -0.00228153 -0.0401928
				CHANNELS 6 Xposition Yposition Zposition Zrotation Xrotation Yrotation 
				JOINT Foot_R
				{
					OFFSET -40.9854 0.0 0.0
					CHANNELS 6 Xposition Yposition Zposition Zrotation Xrotation Yrotation 
					JOINT Toes_R
					{
						OFFSET -11.7543 0.0 0.0
						CHANNELS 6 Xposition Yposition Zposition Zrotation Xrotation Yrotation 
						End Site
						{
							OFFSET 0.0 0.0 0.0
						}
					}
				}
			}
		}
	}
}
MOTION
Frames:	4
Frame Time:	0.0333333
0.000000 0.000000 0.000000 0.000000 0.000000 -0.000000 138.108000 89.707600 135.750000 91.797800 -37.689200 4.881320 15.735700 0.000005 -0.000001 80.661600 81.455100 -81.783000 8.984550 -0.406207 -0.000000 9.078890 -2.771110 -2.021020 16.377300 -0.000001 -0.000001 5.325270 -17.021100 4.151770 6.456720 -0.000001 -0.000000 3.195800 -22.359000 9.794150 12.994200 -0.242716 4.980390 -90.783000 2.646100 -73.508900 5.348090 -0.000007 -0.000001 -58.536100 35.776500 -26.873600 24.328600 0.000019 0.000005 7.464640 14.821700 -27.121100 22.291600 -0.000001 0.000005 11.361400 5.228350 1.998020 12.994500 -0.242716 -4.980390 88.253700 9.049670 -79.030500 -5.348130 -0.000001 -0.000004 -64.698300 26.612500 -10.694800 -24.328900 0.000322 -0.000009 -0.080463 -0.247530 -17.786700 -22.291500 -0.000108 -0.000004 16.243800 5.362480 -1.755180 -2.192480 -6.469440 -0.000000 -179.809000 -14.685000 -17.501300 39.081100 -0.000007 -0.000012 -0.159996 0.216221 36.500500 40.985400 -0.000006 -0.000013 0.329952 0.067763 -65.341400 11.754300 -0.000000 0.000003 -0.000145 -0.001412 -16.631300 -2.192510 6.469440 -0.000001 176.006000 5.809290 162.820000 -39.081100 -0.002282 -0.040193 0.120721 -0.065315 60.936900 -40.985400 0.000008 0.000006 -0.932216 7.361490 -58.786700 -11.754300 -0.000006 -0.000006 -0.016413 -0.146538 -22.554200
0.000000 0.000000 0.000000 0.000000 0.000000 -0.000000 137.682000 89.936500 137.233000 91.453300 -39.040000 4.522290 15.735700 0.000005 -0.000001 79.455800 81.422600 -80.512900 8.984550 -0.406207 -0.000000 9.080990 -3.134590 -1.863800 16.377300 -0.000001 -0.000001 4.788500 -16.657300 3.849240 6.456720 -0.000001 -0.000000 2.758530 -21.569100 9.767150 12.994200 -0.242716 4.980390 -90.778000 2.644820 -73.601200 5.348090 -0.000007 -0.000001 -57.740800 35.081300 -27.906800 24.328600 0.000019 0.000005 7.308880 14.423200 -27.245300 22.291600 -0.000001 0.000005 11.476700 5.228790 1.986680 12.994500 -0.242716 -4.980390 88.178500 9.317180 -78.886800 -5.348130 -0.000001 -0.000004 -65.109800 26.492400 -9.661770 -24.328900 0.000322 -0.000009 0.177538 0.562760 -17.606900 -22.291500 -0.000108 -0.000004 15.766100 5.362520 -1.756700 -2.192480 -6.469440 -0.000000 -179.583000 -15.621700 -16.101400 39.081100 -0.000007 -0.000012 -0.173815 0.240031 35.909900 40.985400 -0.000006 -0.000013 0.318374 -0.336326 -66.322400 11.754300 -0.000000 0.000003 -0.000162 -0.001546 -16.636200 -2.192510 6.469440 -0.000001 176.884000 8.355120 160.204000 -39.081100 -0.002282 -0.040193 0.130006 -0.063580 63.375000 -40.985400 0.000008 0.000006 1.033770 3.423460 -59.388100 -11.754300 -0.000006 -0.000006 -0.013124 -0.125662 -21.697400
0.000000 0.000000 0.000000 0.000000 0.000000 -0.000000 137.245000 90.205000 138.575000 91.016600 -40.607400 4.016320 15.735700 0.000005 -0.000001 78.882100 81.404000 -79.818700 8.984550 -0.406207 -0.000000 9.087990 -3.308160 -1.608970 16.377300 -0.000001 -0.000001 4.140380 -16.315100 3.584590 6.456720 -0.000001 -0.000000 2.309180 -20.940200 9.838990 12.994200 -0.242716 4.980390 -90.770000 2.626330 -73.654500 5.348090 -0.000007 -0.000001 -56.903800 34.639500 -28.796100 24.328600 0.000019 0.000005 7.282260 14.350900 -27.274000 22.291600 -0.000001 0.000005 11.723500 5.227420 2.022090 12.994500 -0.242716 -4.980390 88.121500 9.533370 -78.799000 -5.348130 -0.000001 -0.000004 -65.422800 26.673600 -8.570230 -24.328900 0.000322 -0.000009 -0.069257 -0.208186 -18.139200 -22.291500 -0.000108 -0.000004 15.837900 5.361940 -1.738880 -2.192480 -6.469440 -0.000000 -179.271000 -16.960700 -14.681600 39.081100 -0.000007 -0.000012 -0.179846 0.257109 34.972900 40.985400 -0.000006 -0.000013 0.318741 -0.568807 -67.045400 11.754300 -0.000000 0.000003 -0.000163 -0.001560 -16.636700 -2.192510 6.469440 -0.000001 178.238000 10.462200 158.320000 -39.081100 -0.002282 -0.040193 0.114260 -0.057743 62.532400 -40.985400 0.000008 0.000006 2.034200 -0.123971 -60.628000 -11.754300 -0.000006 -0.000006 -0.013027 -0.125011 -21.670700
0.000000 0.000000 0.000000 0.000000 0.000000 -0.000000 136.823000 90.444100 139.812000 90.736000 -42.021600 3.497770 15.735700 0.000005 -0.000001 77.985000 81.400400 -78.814900 8.984550 -0.406207 -0.000000 9.043950 -3.570590 -1.376370 16.377300 -0.000001 -0.000001 3.522250 -15.982100 3.413190 6.456720 -0.000001 -0.000000 1.886100 -20.379400 9.939630 12.994200 -0.242716 4.980390 -90.705300 2.426780 -73.788500 5.348090 -0.000007 -0.000001 -56.674300 34.034100 -29.004900 24.328600 0.000019 0.000005 7.543020 14.751100 -27.476700 22.291600 -0.000001 0.000005 12.061800 5.221760 2.167690 12.994500 -0.242716 -4.980390 88.104700 9.537870 -78.706300 -5.348130 -0.000001 -0.000004 -65.900100 26.559800 -7.782830 -24.328900 0.000322 -0.000009 -0.046701 -0.136101 -18.541800 -22.291500 -0.000108 -0.000004 15.568100 5.366660 -1.883580 -2.192480 -6.469440 -0.000000 -179.129000 -17.960500 -13.408200 39.081100 -0.000007 -0.000012 -0.186579 0.277359 33.929000 40.985400 -0.000006 -0.000013 0.239613 -0.958410 -67.621300 11.754300 -0.000000 0.000003 -0.000167 -0.001587 -16.637700 -2.192510 6.469440 -0.000001 179.780000 12.746300 157.192000 -39.081100 -0.002282 -0.040193 0.087848 -0.051232 58.814100 -40.985400 0.000008 0.000006 3.377280 -1.544670 -61.703800 -11.754300 -0.000006 -0.000006 -0.013008 -0.124885 -21.665600
